<svg width="32" height="32" viewBox="0 0 32 32" fill="none" xmlns="http://www.w3.org/2000/svg">
<path d="M19.287 24.3676C17.6742 24.3676 16.0614 24.3583 14.4391 24.3676C13.8015 24.3676 13.2858 24.1707 12.8263 23.7487C12.545 23.4862 12.2543 23.233 11.9449 23.008C11.1666 22.4547 9.88192 22.4453 9.08487 23.1861C8.88796 23.3737 8.68166 23.5518 8.48475 23.7394C8.05341 24.152 7.54705 24.3676 6.93755 24.3676C6.05611 24.3583 5.18405 24.3864 4.30261 24.3489C3.09298 24.302 2.20217 23.5893 2.03338 22.3985C1.91148 21.517 2.11777 20.72 2.74603 20.0636C2.83042 19.9792 2.80229 19.9136 2.76479 19.8292C2.41784 18.9946 2.31469 18.1132 2.37095 17.2224C2.44597 16.144 2.73665 15.1125 3.19613 14.1373C3.44931 13.5935 3.74937 13.059 4.05881 12.5432C4.54641 11.7274 5.41847 11.5118 6.2624 11.9619C6.73125 12.2151 7.2001 12.487 7.67833 12.7214C8.41911 13.0871 9.18802 13.3684 10.0038 13.5091C11.0728 13.6872 12.0949 13.5935 13.042 13.0215C13.1451 12.9558 13.1732 12.909 13.1264 12.7964C12.8075 11.9713 12.5637 11.1273 12.4418 10.2553C12.3856 9.78641 12.3574 9.32694 12.4887 8.85809C12.7138 8.07042 13.4264 7.76098 14.1203 8.2017C15.0955 8.82058 16.0614 9.45822 17.0084 10.1146C20.4498 12.4964 23.8255 14.9719 27.1825 17.4662C27.7826 17.9069 28.4015 18.3288 28.9078 18.8915C29.311 19.3322 29.6486 19.8198 29.8455 20.3918C30.2112 21.442 29.9205 22.3985 29.0485 23.0736C28.4484 23.5425 27.7545 23.805 27.0231 23.9832C25.9353 24.2551 24.8195 24.3395 23.7036 24.3395C22.2314 24.3395 20.7592 24.3395 19.287 24.3395V24.3676ZM18.7432 14.8125C17.4023 16.566 16.0801 18.3007 14.7298 20.0636C14.8236 20.0636 14.8799 20.073 14.9361 20.073C15.3862 20.073 15.8457 20.073 16.2958 20.073C16.4177 20.073 16.5021 20.0355 16.5771 19.9323C17.6086 18.5164 18.6494 17.1098 19.6902 15.7033C19.7278 15.6564 19.7653 15.6095 19.8121 15.5533C20.5529 16.0784 21.2843 16.5941 22.0251 17.1098C21.3031 18.0944 20.5811 19.0696 19.8497 20.0636C19.934 20.0636 19.9809 20.073 20.0278 20.073C20.3373 20.073 20.6561 20.073 20.9655 20.073C22.0814 20.0636 23.1879 20.1105 24.2943 19.9698C24.7257 19.9136 25.1477 19.8292 25.5321 19.6135C25.9541 19.3697 26.0666 19.0227 25.8509 18.5914C25.6071 18.1038 25.2133 17.7287 24.782 17.4099C23.3848 16.3878 21.997 15.3563 20.5904 14.3436C18.4244 12.7777 16.2489 11.2211 14.0172 9.75828C13.9515 9.72077 13.8859 9.67389 13.8109 9.627C13.8109 9.68327 13.8015 9.72077 13.8109 9.74891C13.8671 10.1146 13.8859 10.4991 13.989 10.8554C14.1391 11.4274 14.336 11.99 14.5329 12.5526C14.7486 13.1809 14.6267 13.6122 14.0922 13.9967C13.7265 14.2592 13.3327 14.4749 12.9107 14.6249C11.7573 15.0563 10.5758 15.0469 9.38494 14.775C8.11905 14.4843 6.9563 13.9404 5.84044 13.284C5.74667 13.2278 5.6529 13.1715 5.55913 13.1246C5.43723 13.0684 5.34346 13.0965 5.26844 13.209C4.48077 14.4468 3.87127 15.7502 3.75875 17.2411C3.68373 18.1788 3.88065 19.0603 4.3495 19.8761C4.42451 19.998 4.49953 20.0448 4.64956 20.0448C6.80627 20.0448 8.97235 20.0448 11.1291 20.0448C11.2697 20.0448 11.3541 19.998 11.4479 19.8854C13.1076 17.71 14.7673 15.5345 16.4271 13.359C16.4646 13.3122 16.5021 13.2653 16.5396 13.2184C17.2804 13.7435 18.0118 14.2499 18.7525 14.775L18.7432 14.8125Z" fill="white"/>
</svg>
