<svg width="59" height="59" viewBox="0 0 59 59" fill="none" xmlns="http://www.w3.org/2000/svg">
<path d="M29.5044 58.9876C21.0436 58.9876 12.5835 58.9667 4.12275 58.9999C1.59474 59.0097 -0.0639397 56.98 0.00189071 54.8452C0.0917153 51.9438 0.462088 49.0978 1.55106 46.3839C2.2229 44.7089 3.15437 43.2066 4.61248 42.0872C5.55564 41.3631 6.65629 40.9279 7.72865 40.4497C11.6477 38.7015 15.7212 37.4365 19.9276 36.5925C19.9479 36.5882 19.9688 36.587 19.9879 36.5802C20.712 36.3171 21.2799 36.5562 21.9209 36.9656C26.243 39.7238 30.7791 40.1424 35.4728 37.9805C36.2726 37.6123 36.9869 37.0548 37.7295 36.5679C37.9011 36.4554 38.0389 36.3958 38.2561 36.4358C43.4881 37.3965 48.5004 39.0224 53.271 41.3779C54.9881 42.2256 56.1263 43.6363 56.9765 45.3046C57.9062 47.1283 58.4285 49.0812 58.6937 51.0974C58.8573 52.3422 58.9674 53.6004 58.9994 54.855C59.061 57.2646 57.3241 58.9876 54.9179 58.9876C46.4474 58.9876 37.9762 58.9876 29.5056 58.9876H29.5044Z" fill="black"/>
<path d="M15.6965 14.4703C15.6824 12.2727 15.9752 10.1379 16.8316 8.10513C18.4706 4.21413 21.3296 1.67115 25.4087 0.581917C29.0742 -0.397288 32.6875 -0.177843 36.115 1.52363C39.7111 3.30869 41.8687 6.27274 42.8451 10.1287C43.2352 11.6685 43.3256 13.2378 43.2635 14.8188C43.1521 17.6728 42.711 20.4734 41.8626 23.2038C40.96 26.1082 39.6994 28.8326 37.7294 31.1844C36.2768 32.919 34.5548 34.3045 32.3565 34.9629C28.9038 35.9968 25.8043 35.2247 23.0462 32.9762C21.2466 31.5089 19.9392 29.647 18.8915 27.597C17.3731 24.6262 16.4723 21.463 16.0497 18.164C15.8928 16.9376 15.8122 15.7021 15.6971 14.4703H15.6965Z" fill="black"/>
</svg>
