<svg width="32" height="32" viewBox="0 0 32 32" fill="none" xmlns="http://www.w3.org/2000/svg">
<path d="M22.6975 16.0848L16.8482 25.5303C16.7574 25.6751 16.6317 25.7934 16.4831 25.8738C16.3344 25.9542 16.168 25.9939 16 25.9891C15.9096 26.0036 15.8175 26.0036 15.727 25.9891C15.518 25.9269 15.3353 25.7949 15.2081 25.6141C15.0809 25.4334 15.0165 25.2142 15.0251 24.9917V19.0072H10.9501C10.601 19.0073 10.2584 18.9115 9.95786 18.7298C9.65736 18.5481 9.41003 18.2872 9.2417 17.9744C9.07338 17.6615 8.99022 17.3082 9.00092 16.9513C9.01161 16.5943 9.11576 16.2469 9.3025 15.9452L15.1518 6.4997C15.2612 6.30547 15.4312 6.15458 15.6346 6.07134C15.838 5.9881 16.0629 5.97738 16.273 6.04089C16.482 6.10308 16.6647 6.23508 16.7919 6.41584C16.9191 6.59661 16.9835 6.81573 16.9749 7.0383V13.0228H21.0499C21.399 13.0227 21.7416 13.1185 22.0421 13.3002C22.3426 13.4819 22.59 13.7427 22.7583 14.0556C22.9266 14.3684 23.0098 14.7218 22.9991 15.0787C22.9884 15.4356 22.8842 15.7831 22.6975 16.0848Z" fill="white"/>
</svg>
