<svg width="32" height="32" viewBox="0 0 32 32" fill="none" xmlns="http://www.w3.org/2000/svg">
<path fill-rule="evenodd" clip-rule="evenodd" d="M4.89046 21.0028C3.47984 18.5613 2.77454 17.3406 2.77454 16C2.77454 14.6594 3.47984 13.4387 4.89046 10.9972L6.04601 8.99722C7.45513 6.55837 8.15969 5.33894 9.31967 4.66947C10.4797 4 11.888 4 14.7047 4H17.2953C20.1119 4 21.5203 4 22.6803 4.66947C23.8402 5.33894 24.5448 6.55837 25.9539 8.99722L27.1048 10.9892C28.5176 13.4344 29.224 14.657 29.2231 15.9995C29.2221 17.3419 28.5141 18.5635 27.0979 21.0068L25.934 23.0148C24.5237 25.4479 23.8185 26.6645 22.6596 27.3323C21.5008 28 20.0946 28 17.2823 28H14.7047C11.888 28 10.4797 28 9.31967 27.3305C8.15969 26.6611 7.45513 25.4416 6.04601 23.0028L4.89046 21.0028ZM10.75 16C10.75 18.9 13.1 21.25 16 21.25C18.9 21.25 21.25 18.9 21.25 16C21.25 13.1 18.9 10.75 16 10.75C13.1 10.75 10.75 13.1 10.75 16Z" fill="white"/>
</svg>
