<svg width="28" height="24" viewBox="0 0 28 24" fill="none" xmlns="http://www.w3.org/2000/svg">
<path fill-rule="evenodd" clip-rule="evenodd" d="M2.89046 17.0028C1.47984 14.5613 0.774536 13.3406 0.774536 12C0.774536 10.6594 1.47984 9.43867 2.89046 6.99723L4.04601 4.99722C5.45513 2.55837 6.15969 1.33894 7.31967 0.669472C8.47966 0 9.888 0 12.7047 0H15.2953C18.1119 0 19.5203 0 20.6803 0.669472C21.8402 1.33894 22.5448 2.55837 23.9539 4.99722L25.1048 6.98921C26.5176 9.4344 27.224 10.657 27.2231 11.9995C27.2221 13.3419 26.5141 14.5635 25.0979 17.0068L23.934 19.0148C22.5237 21.4479 21.8185 22.6645 20.6596 23.3323C19.5008 24 18.0946 24 15.2823 24H12.7047C9.888 24 8.47966 24 7.31967 23.3305C6.15969 22.6611 5.45513 21.4416 4.04601 19.0028L2.89046 17.0028ZM8.74996 12C8.74996 14.9 11.1 17.25 14 17.25C16.9 17.25 19.25 14.9 19.25 12C19.25 9.1 16.9 6.75 14 6.75C11.1 6.75 8.74996 9.1 8.74996 12Z" fill="white"/>
</svg>
